<svg width="1479" height="346" viewBox="0 0 1479 346" xmlns="http://www.w3.org/2000/svg"><title>Group 2</title><g fill="none" fill-rule="evenodd"><path d="M478.466 278.369C462.945 285.848 447.96 288 432.709 288 388.026 288 361 255.37 361 216.864 361 178.359 387.758 146 432.71 146c15.79 0 30.769 3.48 46.29 10.165l-8.567 24.065c-12.3-4.813-24.616-7.758-37.184-7.758-26.222 0-41.214 20.594-41.214 44.392 0 24.064 14.992 44.66 41.214 44.66 12.568 0 24.614-3.212 37.184-8.301l8.033 25.146zm128.525-61.235c0-26.477-17.38-44.666-38.492-44.666-21.12 0-38.491 18.19-38.491 44.666 0 26.211 17.11 44.39 38.491 44.39 21.652 0 38.492-18.179 38.492-44.39m-107.991 0c0-38.24 28.335-71.134 69.5-71.134 41.163 0 69.5 32.894 69.5 71.134C638 255.371 610.2 288 568.5 288c-41.703 0-69.5-32.63-69.5-70.866m279.478 61.235c-15.533 7.479-30.515 9.631-45.766 9.631-44.69 0-71.712-32.63-71.712-71.136C661 178.359 687.756 146 732.712 146c15.784 0 30.775 3.48 46.288 10.165l-8.553 24.065c-12.312-4.813-24.625-7.758-37.193-7.758-26.232 0-41.218 20.594-41.218 44.392 0 24.064 14.986 44.66 41.218 44.66 12.568 0 24.614-3.212 37.193-8.301l8.031 25.146zm129.517-61.235c0-26.477-17.381-44.666-38.493-44.666-21.126 0-38.49 18.19-38.49 44.666 0 26.211 17.094 44.39 38.49 44.39 21.654 0 38.493-18.179 38.493-44.39m-107.995 0c0-38.24 28.333-71.134 69.502-71.134C910.674 146 939 178.894 939 217.134 939 255.371 911.202 288 869.502 288S800 255.37 800 217.134m168-66.178l28.429.022-.032 15.805c9.651-13.86 24.384-20.783 42.867-20.783 27.06 0 44.736 19.713 44.736 51.42V284h-30v-82.586c0-16.79-6.165-29.04-20.9-29.04-21.7 0-35.087 18.383-35.087 49.55V284H968V150.956zm247.903 65.639c0-26.47-16.85-44.127-38.26-44.127-21.68 0-35.588 19.535-35.588 44.396 0 23.799 12.844 44.651 35.589 44.651 20.057 0 38.26-16.576 38.26-44.92zm-.528 51.883C1205.733 280.512 1191.82 288 1174.16 288c-39.068 0-63.16-34.23-63.16-71.136 0-37.435 25.155-70.864 63.16-70.864 16.588 0 29.968 6.69 39.869 17.648v-14.171l29.971-.06v135.097h-28.691l.066-16.036zM1282 88.16l30.207-.16v161.368c0 8.276 2.963 11.746 10.793 11.746l-.01 25.886c-22.92 0-40.99-8.271-40.99-33.888V88.16zm168.892 128.435c0-26.47-16.84-44.127-38.257-44.127-21.684 0-35.584 19.535-35.584 44.396 0 23.799 12.837 44.651 35.584 44.651 20.075 0 38.257-16.576 38.257-44.92zm-.52 51.883c-9.644 12.034-23.552 19.522-41.219 19.522-39.07 0-63.153-34.23-63.153-71.136 0-37.435 25.146-70.864 63.153-70.864 16.593 0 29.98 6.69 39.877 17.648v-14.171l29.97-.06v135.097h-28.697l.07-16.036z" fill="#333"/><path d="M173.256 74.997c-53.794 0-97.558 43.764-97.558 97.557s43.764 97.556 97.558 97.556c53.794 0 97.558-43.763 97.558-97.556s-43.764-97.557-97.558-97.557m0 213.012c-63.664 0-115.458-51.793-115.458-115.455S109.592 57.1 173.256 57.1s115.458 51.793 115.458 115.455S236.92 288.01 173.256 288.01" fill="#8EC31F"/><path d="M192.062 200.14s-.902.63-2.134 1.35l-.02-.036a33.31 33.31 0 0 1-16.653 4.442c-18.39 0-33.353-14.957-33.353-33.341 0-18.383 14.962-33.336 33.353-33.336 3.895 0 7.656.656 11.232 1.937.395.15.791.296 1.185.469 4.107 1.81 6.666 3.334 6.666 3.334l22.223-22.223s-4.02-3.08-7.95-5.561a46.48 46.48 0 0 0-3.809-2.148l.003-.006c-.297-.152-.604-.283-.904-.43-.378-.183-.755-.368-1.133-.54a64.661 64.661 0 0 0-13.77-4.655c-1.605-.381-2.598-.562-2.598-.562l-.044.028a64.78 64.78 0 0 0-11.1-.972c-35.666 0-64.68 29.008-64.68 64.665 0 35.657 29.014 64.669 64.68 64.669 11.358 0 22.535-2.99 32.323-8.645l-.023-.04c5.184-3.01 8.866-6.163 8.866-6.163l-22.36-22.236z" fill="#E61874"/><path d="M281.297 289.126s-.443.476-1.112 1.119l-.013-.014a150.086 150.086 0 0 1-3.175 2.916c-28.595 25.563-63.498 38.524-103.742 38.524-87.744 0-159.129-71.379-159.129-159.117 0-87.742 71.385-159.125 159.129-159.125 35.476 0 72.663 13.605 102.275 37.335a558.504 558.504 0 0 1 6.116 5.121l9.526-9.527s-4.334-3.806-5.959-5.082c-.028-.022-.075-.029-.108-.048l.011-.014C252.974 15.025 212.203.003 173.255.003 78.108.003.7 77.41.7 172.554c0 95.14 77.408 172.543 172.555 172.543 43.03 0 81.998-14.502 112.688-41.936.359-.321.709-.655 1.067-.98.018-.011.047-.011.063-.026a94.508 94.508 0 0 0 2.237-2.087l.073-.067-.002-.001c.803-.766 1.473-1.415 1.473-1.415l-9.557-9.459z" fill="#28A7E1"/><path d="M433 98.343c-10.096-10.865-17.89-17.96-29.49-26.939 5.49-6.914 9.652-14.008 14.612-25.143.974-2.245 1.594-3.322 2.48-4.4L416.881 38c-1.506.539-2.568.629-5.668.718l-31.616.36h-2.303c-3.01 0-4.605-.09-6.996-.45l.177 7.274c2.568-.449 5.137-.629 9.122-.718l29.58-.45.906-.004c.42-.007.711-.028 1.219-.085l-.081.26c-.036.11-.079.207-.185.368-.177.45-.266.54-.443 1.078-6.465 15.714-17.446 29.902-31.616 40.498l-1.377 1.022c-6.053 4.432-10.252 6.713-16.601 9.305 2.214 2.244 2.923 3.232 4.34 5.926 6.553-3.322 11.247-6.286 17.357-10.775l1.25-.945c5.714-4.379 9.88-8.424 15.666-15.129 11.335 8.89 21.343 18.678 28.339 27.747L433 98.343zm50.275-48.766l-18.196 2.872-1.214.184c-3.295.48-5.429.633-8.062.713l1.249 6.82c2.319-.717 5.262-1.345 8.92-1.974l18.373-2.871 3.212 18.128-23.727 3.859c-3.657.628-5.887.807-8.83.807l1.16 6.82 1.004-.3c2.144-.63 3.11-.787 7.558-1.494l23.905-3.859 3.657 20.103.47 3.01c.336 2.235.537 3.874.6 5.605l7.136-1.346-.337-1.068c-.639-2.08-.933-3.435-1.625-7.458l-3.657-19.833 22.388-3.59.397-.06 3.561-.64c.409-.068.692-.108.858-.108l.97-.16c.95-.15 1.583-.22 2.955-.288l-1.249-6.641c-2.23.807-4.816 1.346-8.83 2.064l-22.12 3.59-3.39-18.129 20.247-3.14 4.637-.744c1.32-.202 1.907-.267 3.302-.423l-1.249-6.462-.765.258c-1.787.575-3.65.987-7.084 1.537L489.34 48.5l-1.783-9.872-.253-1.375c-.506-2.846-.651-4.38-.729-6.253l-7.046 1.167.223.553c.748 1.913 1.17 3.633 1.74 7.075l1.783 9.782zM570 35.453L562.635 35l.133 1.104c.154 1.385.215 2.543.221 4.875v.45c0 19.11-1.242 30.973-3.992 38.852-2.929 8.422-7.72 14.942-14.997 20.829l.684.448c2.147 1.433 3.027 2.301 4.64 4.442 7.873-7.682 12.12-13.642 15.123-21.741l.547-1.506c2.858-8.041 3.665-14.656 4.312-34.265l.275-8.602c.089-2.326.157-2.765.419-4.433zm23.292-.363L585.82 35l.191 1.196c.174 1.249.174 2.252.174 6.823l-.547 52.71-.006 1.433c-.028 2.655-.16 3.373-.632 4.693l3.645 4.145.52-.282c.448-.236.755-.371 1.575-.71l1.322-.472c.364-.135.774-.293 1.594-.608 5.376-2.073 9.02-3.875 13.03-6.578 7.836-5.316 13.85-12.794 18.314-23.156l-.723-.59c-1.904-1.58-2.667-2.46-4.38-4.636-2.186 6.938-5.74 12.885-10.751 18.02-4.738 4.776-9.385 7.66-16.948 10.452l.547-54.421.007-1.745c.03-2.911.154-4.354.54-6.184zm58.652 29.81c13.345 10.72 26.602 25.252 34.699 38.1l5.427-4.519-2.594-3.415c-4.483-5.866-7.535-9.638-10.396-12.712 10.916-8.8 20.144-19.112 28.671-32.163l.69-1.064c1.869-2.836 2.491-3.633 3.559-4.697L708.263 40l-.476.173c-1.043.361-1.704.44-4.145.447l-53.792-.003c-4.07-.02-6.07-.133-8.85-.528v7l.747-.063c2.34-.188 4.494-.269 7.875-.287l48.354-.107c3.35-.018 3.65-.04 4.148-.075l-.538.785a9.152 9.152 0 0 0-.174.278c-3.737 6.114-9.787 14.089-14.68 19.228-3.292 3.456-8.008 7.709-11.834 10.899l-2.14-2.17c-6.598-6.653-9.869-9.594-15.92-14.577l-4.894 3.899zM730 66v6l.85-.066c2.299-.168 4.426-.227 10.259-.227l53.504.002c4.84.013 6.78.091 9.387.291v-5.927l-1.21.12c-2.131.194-4.02.246-9.63.246l-53.624-.002c-4.96-.014-7.174-.104-9.536-.437zm145.005-12.649h12.934l7.796.099c1.437.033 2.039.078 3.265.169v-6.501l-1.372.16c-2.807.307-4.73.374-9.6.374l-39.705.033c-1.086.013-1.374.031-1.774.056 1.07-1.692 2.587-4.986 4.639-9.706l.531-1.287c.738-1.753 1.036-2.287 1.699-3.61L846.638 31c-.713 3.651-1.873 6.768-4.549 12.467-4.995 10.508-10.882 18.077-19.089 24.578 2.854 1.513 3.657 2.137 5.263 4.185 6.422-5.877 10.437-10.775 15.521-18.879h24.62c-.803 16.564-4.55 26.537-12.756 34.373-5.441 5.254-11.061 8.638-18.822 11.577 2.32 1.87 3.122 2.938 4.371 5.699l2.45-1.22c4.994-2.522 8.04-4.313 11.287-6.705 6.958-5.165 12.043-11.399 15.254-18.7l.304-.715c2.622-6.274 3.567-11.694 4.513-24.309zm54.995.62c3.889 6.478 6.481 12.768 8.704 21.029L945 72.84l-.787-2.256c-2.971-8.404-4.968-12.618-8.38-18.584L930 53.971zm19-2.135c4.082 7.248 7.025 14.303 8.734 21.164L964 70.777l-.588-1.809c-2.18-6.584-3.997-10.532-8.62-18.968L949 51.836zm37 3.554L979.466 54v.869c0 1.042-.353 3.04-.971 5.908-1.59 6.69-4.15 13.207-7.505 18.68-6.093 9.992-14.392 16.682-27.99 22.677 2.03 1.825 2.737 2.694 4.062 4.866 13.685-6.516 22.956-14.51 29.225-25.11 3.061-5.187 6.122-12.792 7.606-18.779l.164-.683c1.413-5.648 1.413-5.648 1.943-7.038zm57.684 49.61H1036l.142-1.026c.263-2.055.394-4.221.394-8.358v-55.5c0-4.737-.179-6.882-.536-9.116h7.684l-.099.687c-.265 1.969-.342 3.876-.347 8.109v17.211l1.815.656c12.877 4.705 23.005 9.576 37.947 18.202l-3.842 6.613c-8.172-5.739-20.067-12.155-32.308-17.272l-1.021-.423c-1.34-.537-1.966-.894-2.77-1.52l-.179.09c.268 1.787.358 3.038.358 5.273l.003 28.36c.018 3.958.123 5.77.443 8.014z" fill="#333" fill-rule="nonzero"/></g></svg>